<svg width="126" height="25" viewBox="0 0 126 25" fill="none" xmlns="http://www.w3.org/2000/svg">
<path d="M34.2358 20V8.83422H37.2381V10.7824H37.3544C37.5579 10.0894 37.8996 9.56601 38.3793 9.21223C38.8591 8.85361 39.4116 8.6743 40.0368 8.6743C40.1918 8.6743 40.359 8.68399 40.5384 8.70337C40.7177 8.72276 40.8752 8.74941 41.0109 8.78334V11.5312C40.8655 11.4875 40.6644 11.4488 40.4075 11.4149C40.1507 11.3809 39.9156 11.364 39.7024 11.364C39.2468 11.364 38.8397 11.4633 38.4811 11.662C38.1273 11.8559 37.8463 12.1273 37.6379 12.4762C37.4343 12.8251 37.3326 13.2274 37.3326 13.6829V20H34.2358ZM47.1808 20.2181C46.0322 20.2181 45.0436 19.9855 44.2148 19.5202C43.391 19.0501 42.7561 18.3862 42.3103 17.5284C41.8644 16.6658 41.6415 15.6456 41.6415 14.468C41.6415 13.3194 41.8644 12.3114 42.3103 11.4439C42.7561 10.5765 43.3837 9.9004 44.193 9.41577C45.0072 8.93115 45.9619 8.68884 47.0572 8.68884C47.7938 8.68884 48.4796 8.80757 49.1144 9.04504C49.7541 9.27766 50.3114 9.62901 50.7864 10.0991C51.2661 10.5692 51.6393 11.1604 51.9059 11.8728C52.1724 12.5804 52.3057 13.4091 52.3057 14.359V15.2095H42.8773V13.2904H49.3906C49.3906 12.8445 49.2937 12.4495 49.0999 12.1054C48.906 11.7614 48.6371 11.4924 48.293 11.2985C47.9537 11.0998 47.5588 11.0005 47.1081 11.0005C46.638 11.0005 46.2212 11.1095 45.8577 11.3276C45.4991 11.5409 45.218 11.8292 45.0145 12.1927C44.8109 12.5513 44.7067 12.9511 44.7019 13.3921V15.2167C44.7019 15.7692 44.8037 16.2466 45.0072 16.6488C45.2156 17.0511 45.5088 17.3612 45.8868 17.5793C46.2648 17.7974 46.7131 17.9064 47.2316 17.9064C47.5757 17.9064 47.8907 17.858 48.1767 17.761C48.4626 17.6641 48.7073 17.5187 48.9109 17.3249C49.1144 17.131 49.2695 16.8935 49.3761 16.6125L52.2402 16.8015C52.0949 17.4896 51.7968 18.0906 51.3461 18.6043C50.9003 19.1131 50.3236 19.5105 49.616 19.7965C48.9133 20.0775 48.1015 20.2181 47.1808 20.2181ZM64.4365 8.83422L60.5328 20H57.0435L53.1398 8.83422H56.4111L58.73 16.8233H58.8463L61.158 8.83422H64.4365ZM68.8272 16.7869L68.8344 13.0723H69.2851L72.8617 8.83422H76.4164L71.6113 14.4462H70.8771L68.8272 16.7869ZM66.0212 20V5.1123H69.1179V20H66.0212ZM72.9998 20L69.714 15.1368L71.7785 12.9487L76.6272 20H72.9998ZM85.096 15.2458V8.83422H88.1928V20H85.2196V17.9718H85.1033C84.8513 18.6261 84.4321 19.1519 83.8457 19.5493C83.2642 19.9467 82.5542 20.1454 81.7158 20.1454C80.9695 20.1454 80.3128 19.9758 79.7458 19.6365C79.1788 19.2973 78.7353 18.8151 78.4155 18.1899C78.1005 17.5648 77.9406 16.816 77.9357 15.9437V8.83422H81.0325V15.3912C81.0373 16.0503 81.2142 16.5713 81.5631 16.9541C81.9121 17.337 82.3797 17.5284 82.9661 17.5284C83.3393 17.5284 83.6882 17.4436 84.0129 17.274C84.3376 17.0995 84.5993 16.8427 84.798 16.5034C85.0015 16.1642 85.1009 15.745 85.096 15.2458Z" fill="#DFDFDF"/>
<path d="M93.2012 20.0966C92.9033 20.0966 92.6478 19.9899 92.4345 19.7766C92.2212 19.5633 92.1145 19.3078 92.1145 19.0099C92.1145 18.7121 92.2212 18.4566 92.4345 18.2433C92.6478 18.0299 92.9033 17.9233 93.2012 17.9233C93.499 17.9233 93.7545 18.0299 93.9678 18.2433C94.1812 18.4566 94.2878 18.7121 94.2878 19.0099C94.2878 19.2071 94.2375 19.3883 94.1369 19.5533C94.0403 19.7183 93.9095 19.8511 93.7445 19.9517C93.5835 20.0483 93.4024 20.0966 93.2012 20.0966ZM100.346 20.1932C99.5731 20.1932 98.891 19.998 98.2993 19.6076C97.7077 19.2132 97.2449 18.6578 96.9108 17.9414C96.5768 17.221 96.4098 16.3698 96.4098 15.3878C96.4098 14.4138 96.5768 13.5687 96.9108 12.8523C97.2449 12.1359 97.7097 11.5825 98.3054 11.1921C98.901 10.8017 99.5892 10.6065 100.37 10.6065C100.974 10.6065 101.451 10.7071 101.801 10.9084C102.155 11.1056 102.425 11.331 102.61 11.5845C102.799 11.834 102.946 12.0393 103.05 12.2003H103.171V7.63636H104.596V20H103.219V18.5753H103.05C102.946 18.7443 102.797 18.9576 102.604 19.2152C102.41 19.4687 102.135 19.6961 101.777 19.8974C101.418 20.0946 100.942 20.1932 100.346 20.1932ZM100.539 18.9134C101.111 18.9134 101.593 18.7644 101.988 18.4666C102.382 18.1648 102.682 17.7482 102.887 17.217C103.093 16.6817 103.195 16.0639 103.195 15.3636C103.195 14.6714 103.095 14.0657 102.893 13.5465C102.692 13.0233 102.394 12.6168 102 12.3271C101.606 12.0333 101.119 11.8864 100.539 11.8864C99.9354 11.8864 99.4323 12.0413 99.0298 12.3512C98.6314 12.6571 98.3315 13.0736 98.1303 13.6009C97.9331 14.1241 97.8345 14.7116 97.8345 15.3636C97.8345 16.0237 97.9351 16.6233 98.1363 17.1626C98.3416 17.6979 98.6434 18.1245 99.0419 18.4425C99.4443 18.7564 99.9434 18.9134 100.539 18.9134ZM111.291 20.1932C110.397 20.1932 109.627 19.996 108.979 19.6016C108.335 19.2031 107.838 18.6477 107.488 17.9354C107.141 17.219 106.968 16.3859 106.968 15.4361C106.968 14.4863 107.141 13.6491 107.488 12.9247C107.838 12.1963 108.325 11.6288 108.948 11.2223C109.576 10.8118 110.309 10.6065 111.146 10.6065C111.629 10.6065 112.106 10.687 112.577 10.848C113.048 11.009 113.476 11.2706 113.863 11.6328C114.249 11.991 114.557 12.4659 114.786 13.0575C115.016 13.6491 115.13 14.3776 115.13 15.2429V15.8466H107.983V14.6151H113.681C113.681 14.0919 113.577 13.625 113.368 13.2145C113.162 12.804 112.868 12.48 112.486 12.2425C112.108 12.0051 111.661 11.8864 111.146 11.8864C110.578 11.8864 110.087 12.0272 109.673 12.3089C109.262 12.5866 108.946 12.9489 108.725 13.3956C108.504 13.8423 108.393 14.3213 108.393 14.8324V15.6534C108.393 16.3537 108.514 16.9473 108.755 17.4343C109.001 17.9173 109.341 18.2855 109.776 18.5391C110.21 18.7886 110.715 18.9134 111.291 18.9134C111.665 18.9134 112.003 18.861 112.305 18.7564C112.611 18.6477 112.875 18.4867 113.096 18.2734C113.317 18.0561 113.488 17.7865 113.609 17.4645L114.985 17.8509C114.841 18.3177 114.597 18.7282 114.255 19.0824C113.913 19.4325 113.49 19.7062 112.987 19.9034C112.484 20.0966 111.919 20.1932 111.291 20.1932ZM124.598 10.7273L121.169 20H119.72L116.291 10.7273H117.836L120.396 18.1165H120.493L123.052 10.7273H124.598Z" fill="#DFDFDF"/>
<path opacity="0.99" d="M17.6722 21.4537C17.6722 19.8891 19.0845 18.5804 19.905 17.2481C20.4355 16.3868 20.7007 15.2179 20.7007 13.7414C20.7007 12.7381 20.5819 11.8909 20.3444 11.2C20.1148 10.5091 19.7941 9.97901 19.3824 9.60988C18.9707 9.25021 18.5036 9.07037 17.981 9.07037C17.5455 9.05144 17.1655 9.16029 16.8409 9.39691C16.5162 9.64301 16.2352 9.97901 15.9976 10.4049C15.768 10.8309 15.5661 11.323 15.3919 11.8815C15.2257 12.4399 15.0831 13.0362 14.9644 13.6704L14.4418 16.2827C14.2043 17.551 13.8876 18.7152 13.4917 19.7753C13.0958 20.8354 12.6089 21.7535 12.0309 22.5296C11.4529 23.3058 10.772 23.9068 9.98812 24.3327C9.20428 24.7681 8.30562 24.9905 7.29216 25C5.80364 24.9905 4.51306 24.5362 3.42043 23.637C2.33571 22.7473 1.49248 21.4601 0.890736 19.7753C0.296912 18.1 -8.65229e-08 16.0792 0 13.713C8.58308e-08 11.3656 0.300871 9.32119 0.902613 7.57963C1.50436 5.84753 2.39509 4.49403 3.57482 3.51914C3.99469 3.17783 4.44969 2.89389 4.93983 2.66733C6.49892 1.94664 7.981 3.41753 7.981 5.13513V5.69976C7.981 6.97027 6.88218 7.93602 5.93824 8.78642C5.39984 9.28807 4.99208 9.95535 4.71496 10.7883C4.44576 11.6307 4.31116 12.5819 4.31116 13.642C4.31116 14.6831 4.43785 15.587 4.69121 16.3537C4.94458 17.1298 5.29691 17.7309 5.74822 18.1568C6.19952 18.5827 6.71813 18.7957 7.30404 18.7957C7.85036 18.7957 8.30958 18.6016 8.68171 18.2136C9.05384 17.835 9.37055 17.2765 9.63183 16.5383C9.89311 15.8095 10.1306 14.915 10.3444 13.8549L11.0095 10.6889C11.5083 8.23745 12.2882 6.30185 13.3492 4.8821C14.4101 3.46235 15.8393 2.7572 17.6366 2.76667C19.1093 2.7572 20.3959 3.22572 21.4964 4.17222C22.597 5.12819 23.4561 6.4391 24.0736 8.10494C24.6912 9.77078 25 11.6638 25 13.784C25 15.942 24.6912 17.8255 24.0736 19.4346C23.4561 21.0531 22.597 22.3119 21.4964 23.2111C21.233 23.4263 20.9596 23.6166 20.6763 23.7819C19.1829 24.6532 17.6722 23.1827 17.6722 21.4537Z" fill="url(#paint0_linear_17_4)"/>
<defs>
<linearGradient id="paint0_linear_17_4" x1="0.113375" y1="13.4796" x2="25.0091" y2="13.4796" gradientUnits="userSpaceOnUse">
<stop stop-color="#CF2727"/>
<stop offset="1" stop-color="#134CE0"/>
</linearGradient>
</defs>
</svg>
